<?xml version="1.0" encoding="UTF-8"?>
<svg id="Layer_2" data-name="Layer 2" xmlns="http://www.w3.org/2000/svg" viewBox="0 0 867.11 867.48">
  <g id="Layer_1-2" data-name="Layer 1">
    <g>
      <path d="M305.84,649.21c49.21,25.26,97.71,55.04,153.66,62.83,155.06,21.61,284.1-102.72,291.38-254.29,5.06-105.35-24.4-198.52-103.03-270.06-105.71-96.17-253.88-101.44-365.49-11.46-68.1,54.9-90.08,118.33-103.36,202.64-23.12,146.81-1.7,286.15,94.86,401.81,9.8,11.74,35.91,35.46,40.03,47.97,6.6,20.07-5.65,35.79-25.56,38.54l-264.04.05c-21.21-1.48-22.4-10.36-23.5-29.5-2.23-38.96.94-79.1,1.09-117.99C2.77,484.18.09,248.37,3.07,12.94,4.88,6.47,6.68,2.99,13.57,1.44,283.66-1.47,554.14,1.09,824.38.16c15.37,3.83,39.44-6.43,41.49,16.51.23,278.75,2.95,557.94-.48,836.6-1.57,7.09-3.63,10.13-10.74,12.26-109.1,3.93-218.97.53-328.36,1.73-94.25-5.08-176.04-99.96-211.32-180.68-4.99-11.41-11.12-24.86-9.13-37.36Z"/>
      <path d="M377.84,538.21c6.33,34.56,21.03,74.68,43.48,102.01,7.4,9,29.89,26.55,33.58,34.41.74,1.59,1.25,2.73.93,4.57-3.95,3.99-34.36-10.96-39.67-13.82-51.8-27.92-87.62-74.19-106.34-129.66-17.08-50.62-11.33-136.92,5.3-187.73,3.8-11.62,10.15-16.67,22.71-12.27s8.09,17.96,7.96,27.95c-.92,69.17,24.33,131.19,81.13,171.96,66.31,47.59,158.21,30.18,197.43-42.39s24.55-155.59-28.01-215.04c-56.2-63.57-148.92-57.43-209.53-3.5-10.35,9.21-25.26,32.79-40.68,24.71s6.49-32.26,13.67-39.72c78.73-81.9,203.26-75.1,273.42,13.63,118.1,149.36-14.53,391.92-205.07,296.07l-50.32-31.17Z"/>
    </g>
  </g>
</svg>